# This file uses centimeters as units for non-parametric coordinates.

mtllib CoinModelFinal.mtl
g default
v 26.735270 64.544670 -7.353208
v -26.735283 64.544670 -7.353208
v -64.544670 26.735270 -7.353208
v -64.544670 -26.735283 -7.353208
v -26.735270 -64.544670 -7.353208
v 26.735285 -64.544670 -7.353208
v 64.544693 -26.735277 -7.353208
v 64.544678 26.735287 -7.353208
v 26.735270 64.544670 7.353208
v -26.735283 64.544670 7.353208
v -64.544670 26.735270 7.353208
v -64.544670 -26.735283 7.353208
v -26.735270 -64.544670 7.353208
v 26.735285 -64.544670 7.353208
v 64.544693 -26.735277 7.353208
v 64.544678 26.735287 7.353208
v 29.332701 70.815414 -7.353208
v -29.332705 70.815399 -7.353208
v -29.332705 70.815399 7.353208
v 29.332701 70.815414 7.353208
v -70.815414 29.332705 -7.353208
v -70.815414 29.332705 7.353208
v -70.815399 -29.332705 -7.353208
v -70.815399 -29.332705 7.353208
v -29.332706 -70.815407 -7.353208
v -29.332706 -70.815407 7.353208
v 29.332705 -70.815399 -7.353208
v 29.332705 -70.815399 7.353208
v 70.815414 -29.332697 -7.353208
v 70.815414 -29.332697 7.353208
v 70.815407 29.332708 -7.353208
v 70.815407 29.332708 7.353208
v 26.735270 64.544670 -9.810592
v -26.735283 64.544670 -9.810592
v -28.409655 68.586960 -9.810592
v 28.409655 68.586975 -9.810592
v -64.544670 26.735270 -9.810592
v -68.586975 28.409655 -9.810592
v -64.544670 -26.735283 -9.810592
v -68.586960 -28.409655 -9.810592
v -26.735270 -64.544670 -9.810592
v -28.409655 -68.586975 -9.810592
v 26.735285 -64.544670 -9.810592
v 28.409655 -68.586960 -9.810592
v 64.544693 -26.735277 -9.810592
v 68.586983 -28.409651 -9.810592
v 64.544678 26.735287 -9.810592
v 68.586967 28.409658 -9.810592
v 26.735270 64.544670 9.810592
v -26.735283 64.544670 9.810592
v 28.409655 68.586975 9.810592
v -28.409655 68.586960 9.810592
v -64.544670 26.735270 9.810592
v -68.586975 28.409655 9.810592
v -64.544670 -26.735283 9.810592
v -68.586960 -28.409655 9.810592
v -26.735270 -64.544670 9.810592
v -28.409655 -68.586975 9.810592
v 26.735285 -64.544670 9.810592
v 28.409655 -68.586960 9.810592
v 64.544693 -26.735277 9.810592
v 68.586983 -28.409651 9.810592
v 64.544678 26.735287 9.810592
v 68.586967 28.409658 9.810592
vt 0.965594 0.076944
vt 0.965594 0.106570
vt 0.957606 0.106570
vt 0.957606 0.076944
vt 0.965594 0.136198
vt 0.957606 0.136198
vt 0.965594 0.165827
vt 0.957606 0.165827
vt 0.965594 0.195453
vt 0.957606 0.195453
vt 0.965594 0.225114
vt 0.957606 0.225114
vt 0.965594 0.255013
vt 0.957606 0.017384
vt 0.965594 0.047283
vt 0.957606 0.047283
vt 0.701390 0.986075
vt 0.701304 0.013889
vt 0.970872 0.165827
vt 0.970872 0.136198
vt 0.952329 0.047283
vt 0.701334 0.986111
vt 0.701367 0.013903
vt 0.952329 0.255013
vt 0.969546 0.076944
vt 0.969546 0.106570
vt 0.967382 0.106570
vt 0.967382 0.076944
vt 0.953655 0.106570
vt 0.953655 0.076944
vt 0.955819 0.076944
vt 0.955819 0.106570
vt 0.969546 0.136198
vt 0.967382 0.136198
vt 0.953655 0.136198
vt 0.955819 0.136198
vt 0.969546 0.165827
vt 0.967382 0.165827
vt 0.953655 0.165827
vt 0.955819 0.165827
vt 0.969546 0.195453
vt 0.967382 0.195453
vt 0.953655 0.195453
vt 0.955819 0.195453
vt 0.969546 0.225114
vt 0.967382 0.225114
vt 0.953655 0.225114
vt 0.955819 0.225114
vt 0.969546 0.017384
vt 0.967382 0.017384
vt 0.953655 0.017384
vt 0.955819 0.017384
vt 0.969546 0.047283
vt 0.967382 0.047283
vt 0.953655 0.047283
vt 0.955819 0.047283
vt 0.298697 0.986111
vt 0.298611 0.013925
vt 0.970872 0.017384
vt 0.970872 0.047283
vt 0.298632 0.986097
vt 0.952329 0.136198
vt 0.952329 0.165827
vt 0.298666 0.013889
vt 0.986097 0.701368
vt 0.952329 0.076944
vt 0.986111 0.298666
vt 0.952329 0.225114
vt 0.952329 0.195453
vt 0.013903 0.298633
vt 0.013889 0.701334
vt 0.952329 0.106570
vt 0.013925 0.701389
vt 0.970872 0.076944
vt 0.013889 0.298697
vt 0.970872 0.225114
vt 0.970872 0.195453
vt 0.986076 0.298611
vt 0.986111 0.701304
vt 0.970872 0.106570
vt 0.953655 0.255013
vt 0.955819 0.255013
vt 0.957606 0.255013
vt 0.952329 0.017384
vt 0.969546 0.255013
vt 0.967382 0.255013
vt 0.965594 0.017384
vt 0.970872 0.255013
vn -0.000000 0.994155 -0.107966
vn -0.000000 0.994155 -0.107966
vn -0.000000 0.994155 0.107966
vn -0.000000 0.994155 0.107966
vn -0.702973 0.702974 -0.107966
vn -0.702973 0.702974 -0.107966
vn -0.702973 0.702974 0.107966
vn -0.702973 0.702974 0.107966
vn -0.994155 -0.000000 -0.107966
vn -0.994155 -0.000000 -0.107966
vn -0.994155 -0.000000 0.107966
vn -0.994155 -0.000000 0.107966
vn -0.702974 -0.702973 -0.107966
vn -0.702974 -0.702973 -0.107966
vn -0.702974 -0.702973 0.107966
vn -0.702974 -0.702973 0.107966
vn 0.000000 -0.994155 -0.107966
vn 0.000000 -0.994155 -0.107966
vn 0.000000 -0.994155 0.107966
vn 0.000000 -0.994155 0.107966
vn 0.702973 -0.702974 -0.107966
vn 0.702973 -0.702974 -0.107966
vn 0.702973 -0.702973 0.107966
vn 0.702973 -0.702973 0.107966
vn 0.994155 0.000000 -0.107966
vn 0.994155 0.000000 -0.107966
vn 0.994155 0.000000 0.107966
vn 0.994155 0.000000 0.107966
vn 0.702974 0.702973 -0.107966
vn 0.702973 0.702973 -0.107966
vn 0.702973 0.702973 0.107966
vn 0.702973 0.702973 0.107966
vn 0.000000 0.000000 -1.000000
vn 0.000000 0.000000 -1.000000
vn 0.000000 0.000000 -1.000000
vn 0.000000 0.000000 -1.000000
vn -0.000000 0.000000 1.000000
vn -0.000000 0.000000 1.000000
vn -0.000000 0.000000 1.000000
vn -0.000000 0.000000 1.000000
vn 0.000000 0.000000 -1.000000
vn -0.000000 0.000000 -1.000000
vn -0.000000 0.000000 -1.000000
vn 0.000000 0.000000 -1.000000
vn -0.000000 0.000000 1.000000
vn 0.000000 0.000000 1.000000
vn 0.000000 0.000000 1.000000
vn -0.000000 0.000000 1.000000
vn -0.000000 0.000000 -1.000000
vn -0.000000 0.000000 -1.000000
vn -0.000000 0.000000 1.000000
vn -0.000000 0.000000 1.000000
vn -0.000000 0.000000 -1.000000
vn -0.000000 0.000000 -1.000000
vn 0.000000 0.000000 1.000000
vn 0.000000 0.000000 1.000000
vn 0.000000 0.000000 -1.000000
vn 0.000000 0.000000 -1.000000
vn 0.000000 0.000000 1.000000
vn 0.000000 0.000000 1.000000
vn 0.000000 0.000000 -1.000000
vn 0.000000 0.000000 -1.000000
vn 0.000000 0.000000 1.000000
vn 0.000000 0.000000 1.000000
vn 0.000000 0.000000 -1.000000
vn 0.000000 0.000000 -1.000000
vn 0.000000 0.000000 1.000000
vn 0.000000 0.000000 1.000000
vn 0.000000 0.000000 -1.000000
vn 0.000000 0.000000 -1.000000
vn 0.000000 0.000000 1.000000
vn 0.000000 0.000000 1.000000
vn 0.000000 -1.000000 0.000000
vn 0.000000 -1.000000 0.000000
vn 0.000000 -1.000000 0.000000
vn 0.000000 -1.000000 0.000000
vn -0.000000 0.740772 -0.671757
vn -0.000000 0.740772 -0.671757
vn 0.707107 -0.707107 0.000000
vn 0.707107 -0.707107 0.000000
vn 0.707107 -0.707107 0.000000
vn 0.707107 -0.707107 0.000000
vn -0.523804 0.523805 -0.671757
vn -0.523804 0.523805 -0.671757
vn 1.000000 0.000000 0.000000
vn 1.000000 0.000000 0.000000
vn 1.000000 0.000000 0.000000
vn 1.000000 0.000000 0.000000
vn -0.740772 -0.000000 -0.671757
vn -0.740772 -0.000000 -0.671757
vn 0.707107 0.707107 0.000000
vn 0.707107 0.707107 0.000000
vn 0.707107 0.707107 0.000000
vn 0.707107 0.707107 0.000000
vn -0.523805 -0.523805 -0.671756
vn -0.523805 -0.523805 -0.671756
vn 0.000000 1.000000 0.000000
vn 0.000000 1.000000 0.000000
vn 0.000000 1.000000 0.000000
vn 0.000000 1.000000 0.000000
vn 0.000000 -0.740773 -0.671755
vn 0.000000 -0.740773 -0.671755
vn -0.707107 0.707107 0.000000
vn -0.707107 0.707107 0.000000
vn -0.707107 0.707107 0.000000
vn -0.707107 0.707107 0.000000
vn 0.523805 -0.523805 -0.671756
vn 0.523805 -0.523805 -0.671756
vn -1.000000 -0.000000 0.000000
vn -1.000000 -0.000000 0.000000
vn -1.000000 -0.000000 0.000000
vn -1.000000 -0.000000 0.000000
vn 0.740772 0.000000 -0.671756
vn 0.740772 0.000000 -0.671756
vn -0.707107 -0.707107 0.000000
vn -0.707107 -0.707107 0.000000
vn -0.707107 -0.707107 0.000000
vn -0.707107 -0.707107 0.000000
vn 0.523805 0.523805 -0.671756
vn 0.523805 0.523805 -0.671756
vn 0.000000 -1.000000 0.000000
vn 0.000000 -1.000000 0.000000
vn 0.000000 -1.000000 0.000000
vn 0.000000 -1.000000 0.000000
vn -0.000000 0.740772 0.671757
vn -0.000000 0.740772 0.671757
vn 0.707107 -0.707107 0.000000
vn 0.707107 -0.707107 0.000000
vn 0.707107 -0.707107 0.000000
vn 0.707107 -0.707107 0.000000
vn -0.523804 0.523804 0.671757
vn -0.523804 0.523804 0.671757
vn 1.000000 0.000000 0.000000
vn 1.000000 0.000000 0.000000
vn 1.000000 0.000000 0.000000
vn 1.000000 0.000000 0.000000
vn -0.740772 -0.000000 0.671757
vn -0.740772 -0.000000 0.671757
vn 0.707107 0.707107 0.000000
vn 0.707107 0.707107 0.000000
vn 0.707107 0.707107 0.000000
vn 0.707107 0.707107 0.000000
vn -0.523805 -0.523805 0.671756
vn -0.523805 -0.523805 0.671757
vn 0.000000 1.000000 0.000000
vn 0.000000 1.000000 0.000000
vn 0.000000 1.000000 0.000000
vn 0.000000 1.000000 0.000000
vn 0.000000 -0.740773 0.671756
vn 0.000000 -0.740773 0.671756
vn -0.707107 0.707107 0.000000
vn -0.707107 0.707107 0.000000
vn -0.707107 0.707107 0.000000
vn -0.707107 0.707107 0.000000
vn 0.523805 -0.523805 0.671756
vn 0.523805 -0.523805 0.671756
vn -1.000000 -0.000000 0.000000
vn -1.000000 -0.000000 0.000000
vn -1.000000 -0.000000 0.000000
vn -1.000000 -0.000000 0.000000
vn 0.740772 0.000000 0.671756
vn 0.740772 0.000000 0.671756
vn -0.707107 -0.707107 0.000000
vn -0.707107 -0.707107 0.000000
vn -0.707107 -0.707107 0.000000
vn -0.707107 -0.707107 0.000000
vn 0.523805 0.523805 0.671756
vn 0.523805 0.523805 0.671756
vn -0.000000 0.000000 -1.000000
vn -0.000000 0.000000 -1.000000
vn -0.000000 0.000000 -1.000000
vn -0.000000 0.000000 -1.000000
vn 0.000000 0.000000 1.000000
vn 0.000000 0.000000 1.000000
vn 0.000000 0.000000 1.000000
vn 0.000000 0.000000 1.000000
s 1
g Coin
usemtl blinn3SG1
f 17/1/1 18/2/2 19/3/3 20/4/4
s 2
f 18/2/5 21/5/6 22/6/7 19/3/8
s 3
f 21/5/9 23/7/10 24/8/11 22/6/12
s 4
f 23/7/13 25/9/14 26/10/15 24/8/16
s 5
f 25/9/17 27/11/18 28/12/19 26/10/20
s 6
f 27/11/21 29/13/22 30/83/23 28/12/24
s 7
f 29/87/25 31/15/26 32/16/27 30/14/28
s 8
f 31/15/29 17/1/30 20/4/31 32/16/32
s 9
f 2/17/33 5/18/34 4/78/35 3/79/36
s 10
f 16/65/37 9/22/38 14/23/39 15/67/40
s 11
f 33/25/41 34/26/42 35/27/43 36/28/44
s 12
f 50/29/45 49/30/46 51/31/47 52/32/48
s 11
f 34/26/42 37/33/49 38/34/50 35/27/43
s 12
f 53/35/51 50/29/45 52/32/48 54/36/52
s 11
f 37/33/49 39/37/53 40/38/54 38/34/50
s 12
f 55/39/55 53/35/51 54/36/52 56/40/56
s 11
f 39/37/53 41/41/57 42/42/58 40/38/54
s 12
f 57/43/59 55/39/55 56/40/56 58/44/60
s 11
f 41/41/57 43/45/61 44/46/62 42/42/58
s 12
f 59/47/63 57/43/59 58/44/60 60/48/64
s 11
f 43/45/61 45/85/65 46/86/66 44/46/62
s 12
f 61/81/67 59/47/63 60/48/64 62/82/68
s 11
f 45/49/65 47/53/69 48/54/70 46/50/66
s 12
f 63/55/71 61/51/67 62/52/68 64/56/72
s 11
f 47/53/69 33/25/41 36/28/44 48/54/70
s 12
f 49/30/46 63/55/71 64/56/72 51/31/47
s off
f 1/74/73 2/80/74 34/26/75 33/25/76
s 1
f 18/2/2 17/1/1 36/28/77 35/27/78
s off
f 2/80/79 3/20/80 37/33/81 34/26/82
s 2
f 21/5/6 18/2/5 35/27/83 38/34/84
s off
f 3/20/85 4/19/86 39/37/87 37/33/88
s 3
f 23/7/10 21/5/9 38/34/89 40/38/90
s off
f 4/19/91 5/77/92 41/41/93 39/37/94
s 4
f 25/9/14 23/7/13 40/38/95 42/42/96
s off
f 5/77/97 6/76/98 43/45/99 41/41/100
s 5
f 27/11/18 25/9/17 42/42/101 44/46/102
s off
f 6/76/103 7/88/104 45/85/105 43/45/106
s 6
f 29/13/22 27/11/21 44/46/107 46/86/108
s off
f 7/59/109 8/60/110 47/53/111 45/49/112
s 7
f 31/15/26 29/87/25 46/50/113 48/54/114
s off
f 8/60/115 1/74/116 33/25/117 47/53/118
s 8
f 17/1/30 31/15/29 48/54/119 36/28/120
s off
f 10/72/121 9/66/122 49/30/123 50/29/124
s 1
f 20/4/4 19/3/3 52/32/125 51/31/126
s off
f 11/62/127 10/72/128 50/29/129 53/35/130
s 2
f 19/3/8 22/6/7 54/36/131 52/32/132
s off
f 12/63/133 11/62/134 53/35/135 55/39/136
s 3
f 22/6/12 24/8/11 56/40/137 54/36/138
s off
f 13/69/139 12/63/140 55/39/141 57/43/142
s 4
f 24/8/16 26/10/15 58/44/143 56/40/144
s off
f 14/68/145 13/69/146 57/43/147 59/47/148
s 5
f 26/10/20 28/12/19 60/48/149 58/44/150
s off
f 15/24/151 14/68/152 59/47/153 61/81/154
s 6
f 28/12/24 30/83/23 62/82/155 60/48/156
s off
f 16/21/157 15/84/158 61/51/159 63/55/160
s 7
f 30/14/28 32/16/27 64/56/161 62/52/162
s off
f 9/66/163 16/21/164 63/55/165 49/30/166
s 8
f 32/16/32 20/4/31 51/31/167 64/56/168
s 9
f 7/75/169 6/58/170 1/57/171 8/73/172
f 1/57/171 6/58/170 5/18/34 2/17/33
s 10
f 13/64/173 10/61/174 11/71/175 12/70/176
f 14/23/39 9/22/38 10/61/174 13/64/173
